<svg xmlns="http://www.w3.org/2000/svg" viewBox="0 0 119.28 53"><defs><style>.cls-1{fill:none;stroke:#fff;stroke-miterlimit:10;stroke-width:3px;}.cls-2{fill:#121212;}.cls-3{fill:#fff;}</style></defs><g id="Layer_2" data-name="Layer 2"><g id="Layer_1-2" data-name="Layer 1"><rect class="cls-1" x="31.85" y="1.5" width="35" height="50" rx="1.68"/><rect class="cls-2" x="26.85" y="16.5" width="45" height="20"/><rect class="cls-3" x="36.85" y="24" width="25" height="5"/><rect class="cls-3" x="36.85" y="14" width="25" height="5"/><rect class="cls-3" x="36.85" y="34" width="25" height="5"/><path class="cls-3" d="M75.24,32.57l-2.83-4-2.93,4H65.4l5-6.51-4.8-6.41h4.2l2.73,3.77,2.81-3.77h4L74.49,26l5,6.61Z"/><path class="cls-3" d="M94,19.65V32.57H90.43V31.08a5,5,0,0,1-4,1.68,6.28,6.28,0,0,1-6.46-6.65,6.28,6.28,0,0,1,6.46-6.65A4.94,4.94,0,0,1,90.26,21V19.65Zm-3.68,6.46a3.31,3.31,0,1,0-6.6,0,3.31,3.31,0,1,0,6.6,0Z"/><path class="cls-3" d="M119.28,25.17v7.4h-3.75V25.75c0-2.09-.93-3.05-2.44-3.05-1.68,0-2.86,1.08-2.86,3.39v6.48h-3.74V25.75c0-2.09-.89-3.05-2.45-3.05s-2.83,1.08-2.83,3.39v6.48H97.46V19.65H101v1.49a5.24,5.24,0,0,1,4-1.68,4.83,4.83,0,0,1,4.25,2.11A5.8,5.8,0,0,1,114,19.46C117.07,19.46,119.28,21.24,119.28,25.17Z"/><path class="cls-3" d="M7.81,31.94a5.32,5.32,0,0,1-3,.82C1.74,32.76,0,31.2,0,28.13V16.8H3.72v3.14H6.9v2.88H3.72v5.26a1.49,1.49,0,0,0,1.58,1.7,2.65,2.65,0,0,0,1.53-.48Z"/><path class="cls-3" d="M17.88,19.46v3.46a8.21,8.21,0,0,0-.84-.05c-2,0-3.41,1.13-3.41,3.6v6.1H9.91V19.65h3.55v1.71A5.18,5.18,0,0,1,17.88,19.46Z"/><path class="cls-3" d="M33.13,19.65V32.57H29.6V31a5.18,5.18,0,0,1-4,1.73c-3.22,0-5.49-1.83-5.49-5.81v-7.3h3.72V26.4c0,2.16,1,3.12,2.61,3.12s3-1.11,3-3.48V19.65Z"/></g></g></svg>